<svg xmlns="http://www.w3.org/2000/svg" width="95" height="67" viewBox="0 0 95 67">
  <g fill="none" fill-rule="evenodd">
    <path fill="#FFA541" d="M2.15808125,32.9996332 C1.54045811,31.5492761 1.08387168,30.1567046 0.824318396,28.8536693 C-3.97204946,10.8029461 13.207094,-0.478597056 25.3644183,5.70828099 C32.5157112,9.350684 35.0367251,16.6304099 41.617127,16.6304099 C46.8820801,16.6304099 51.3083793,11.891349 54.5227983,8.67122597 C57.7113252,5.48221832 62.1313092,2.31797596 65.1259604,5.13042417 C70.2822927,9.97108632 51.3601637,31.6311921 41.4346188,31.6311921 C32.4765571,31.6311921 28.4506394,24.3305109 21.1793584,20.9668761 C17.39468,19.2187005 11.1483502,18.0991823 6.21810086,22.2114908 C1.70591544,25.9720052 2.18460495,33.0586889 2.15808125,32.9996332"/>
    <path fill="#2BC8DB" d="M93.8320728,0.221889478 C90.3510201,-1.39215155 88.5141336,5.91291563 79.5256016,18.4301726 C68.7536105,33.4297522 53.4536432,50.4209409 41.5456828,50.3703068 C35.0822338,50.3453023 22.8168183,40.6729332 17.4378192,32.2501645 C11.7210823,23.3079271 15.6804378,18.598328 21.1612035,21.071899 C17.3494095,19.3509637 11.0557834,18.2513904 6.09275515,22.2971199 C1.5482419,25.9990374 2.03036101,32.9752953 2.00364729,32.9171598 C2.03036101,32.9752953 2.10350573,33.1640793 2.12385904,33.2084623 C8.29345715,46.938438 29.3947548,66 41.5456828,66 C55.060919,66 72.8567113,46.3414553 84.4835415,26.6941627 C93.6838752,11.1451091 96.9957409,1.68777879 93.8320728,0.221889478"/>
  </g>
</svg>
